<svg width="24" height="25" viewBox="0 0 24 25" fill="none" xmlns="http://www.w3.org/2000/svg">
<path fill-rule="evenodd" clip-rule="evenodd" d="M6.96967 2.48822C7.26256 2.19533 7.73744 2.19533 8.03033 2.48822L12.5303 6.98822C12.8232 7.28112 12.8232 7.75599 12.5303 8.04888C12.2374 8.34178 11.7626 8.34178 11.4697 8.04888L8.25 4.82921V16.5186C8.25 16.9328 7.91421 17.2686 7.5 17.2686C7.08579 17.2686 6.75 16.9328 6.75 16.5186V4.82921L3.53033 8.04888C3.23744 8.34178 2.76256 8.34178 2.46967 8.04888C2.17678 7.75599 2.17678 7.28112 2.46967 6.98822L6.96967 2.48822ZM16.5 6.76855C16.9142 6.76855 17.25 7.10434 17.25 7.51855L17.25 19.2079L20.4697 15.9882C20.7626 15.6953 21.2374 15.6953 21.5303 15.9882C21.8232 16.2811 21.8232 16.756 21.5303 17.0489L17.0303 21.5489C16.8897 21.6895 16.6989 21.7686 16.5 21.7686C16.3011 21.7686 16.1103 21.6895 15.9697 21.5489L11.4697 17.0489C11.1768 16.756 11.1768 16.2811 11.4697 15.9882C11.7626 15.6953 12.2374 15.6953 12.5303 15.9882L15.75 19.2079L15.75 7.51855C15.75 7.10434 16.0858 6.76855 16.5 6.76855Z" fill="#0F172A"/>
</svg>